<mxfile host="app.diagrams.net" agent="Mozilla/5.0 (Windows NT 10.0; Win64; x64) AppleWebKit/537.36 (KHTML, like Gecko) Chrome/128.0.0.0 Safari/537.36" version="24.7.8" pages="6">
  <diagram name="BigPicture" id="NWrn__fKPsXymbIAoqd_">
    <mxGraphModel dx="1050" dy="522" grid="1" gridSize="10" guides="1" tooltips="1" connect="1" arrows="1" fold="1" page="1" pageScale="1" pageWidth="850" pageHeight="1100" math="0" shadow="0">
      <root>
        <mxCell id="0" />
        <mxCell id="1" parent="0" />
        <mxCell id="OORShVr8asb5SD_GkmQi-1" value="VICTUS Residencias" style="ellipse;whiteSpace=wrap;html=1;fillColor=#e1d5e7;strokeColor=#9673a6;" parent="1" vertex="1">
          <mxGeometry x="280" y="455" width="290" height="190" as="geometry" />
        </mxCell>
      </root>
    </mxGraphModel>
  </diagram>
  <diagram id="8ul77DssgUj9StDtDX_3" name="ModeloDominio">
    <mxGraphModel dx="2736" dy="949" grid="1" gridSize="10" guides="1" tooltips="1" connect="1" arrows="1" fold="1" page="1" pageScale="1" pageWidth="827" pageHeight="1169" math="0" shadow="0">
      <root>
        <mxCell id="0" />
        <mxCell id="1" parent="0" />
        <mxCell id="8y1poY6qZc2KTzl0dJHU-7" style="edgeStyle=orthogonalEdgeStyle;rounded=0;orthogonalLoop=1;jettySize=auto;html=1;exitX=0.5;exitY=1;exitDx=0;exitDy=0;entryX=0;entryY=0.5;entryDx=0;entryDy=0;endArrow=none;endFill=0;" edge="1" parent="1" source="8y1poY6qZc2KTzl0dJHU-2" target="8y1poY6qZc2KTzl0dJHU-4">
          <mxGeometry relative="1" as="geometry" />
        </mxCell>
        <mxCell id="8y1poY6qZc2KTzl0dJHU-15" style="edgeStyle=orthogonalEdgeStyle;rounded=0;orthogonalLoop=1;jettySize=auto;html=1;exitX=0.5;exitY=0;exitDx=0;exitDy=0;entryX=0.5;entryY=0;entryDx=0;entryDy=0;endArrow=none;endFill=0;" edge="1" parent="1" source="8y1poY6qZc2KTzl0dJHU-2" target="8y1poY6qZc2KTzl0dJHU-9">
          <mxGeometry relative="1" as="geometry">
            <Array as="points">
              <mxPoint x="-170" y="180" />
              <mxPoint x="850" y="180" />
            </Array>
          </mxGeometry>
        </mxCell>
        <mxCell id="8y1poY6qZc2KTzl0dJHU-2" value="Reserva" style="rounded=0;whiteSpace=wrap;html=1;fillColor=#dae8fc;strokeColor=#6c8ebf;" vertex="1" parent="1">
          <mxGeometry x="-250" y="320" width="160" height="80" as="geometry" />
        </mxCell>
        <mxCell id="8y1poY6qZc2KTzl0dJHU-3" value="ConjuntoResidencial" style="rounded=0;whiteSpace=wrap;html=1;fillColor=#dae8fc;strokeColor=#6c8ebf;" vertex="1" parent="1">
          <mxGeometry x="290" y="280" width="160" height="80" as="geometry" />
        </mxCell>
        <mxCell id="8y1poY6qZc2KTzl0dJHU-6" style="edgeStyle=orthogonalEdgeStyle;rounded=0;orthogonalLoop=1;jettySize=auto;html=1;exitX=0.5;exitY=0;exitDx=0;exitDy=0;entryX=0.5;entryY=1;entryDx=0;entryDy=0;endArrow=none;endFill=0;" edge="1" parent="1" source="8y1poY6qZc2KTzl0dJHU-4" target="8y1poY6qZc2KTzl0dJHU-3">
          <mxGeometry relative="1" as="geometry" />
        </mxCell>
        <mxCell id="8y1poY6qZc2KTzl0dJHU-4" value="ZonaComún" style="rounded=0;whiteSpace=wrap;html=1;fillColor=#dae8fc;strokeColor=#6c8ebf;" vertex="1" parent="1">
          <mxGeometry x="290" y="560" width="160" height="80" as="geometry" />
        </mxCell>
        <mxCell id="8y1poY6qZc2KTzl0dJHU-8" style="edgeStyle=orthogonalEdgeStyle;rounded=0;orthogonalLoop=1;jettySize=auto;html=1;exitX=1;exitY=0.5;exitDx=0;exitDy=0;entryX=0.5;entryY=1;entryDx=0;entryDy=0;endArrow=none;endFill=0;" edge="1" parent="1" source="8y1poY6qZc2KTzl0dJHU-5" target="8y1poY6qZc2KTzl0dJHU-4">
          <mxGeometry relative="1" as="geometry">
            <Array as="points">
              <mxPoint x="120" y="890" />
              <mxPoint x="330" y="890" />
            </Array>
          </mxGeometry>
        </mxCell>
        <mxCell id="8y1poY6qZc2KTzl0dJHU-5" value="TipoZonaComún" style="rounded=0;whiteSpace=wrap;html=1;fillColor=#dae8fc;strokeColor=#6c8ebf;" vertex="1" parent="1">
          <mxGeometry x="-50" y="850" width="160" height="80" as="geometry" />
        </mxCell>
        <mxCell id="8y1poY6qZc2KTzl0dJHU-9" value="Residente" style="rounded=0;whiteSpace=wrap;html=1;fillColor=#d5e8d4;strokeColor=#82b366;" vertex="1" parent="1">
          <mxGeometry x="770" y="150" width="160" height="80" as="geometry" />
        </mxCell>
        <mxCell id="8y1poY6qZc2KTzl0dJHU-13" style="edgeStyle=orthogonalEdgeStyle;rounded=0;orthogonalLoop=1;jettySize=auto;html=1;exitX=0.5;exitY=1;exitDx=0;exitDy=0;entryX=0.5;entryY=0;entryDx=0;entryDy=0;endArrow=none;endFill=0;" edge="1" parent="1" source="8y1poY6qZc2KTzl0dJHU-10" target="8y1poY6qZc2KTzl0dJHU-12">
          <mxGeometry relative="1" as="geometry" />
        </mxCell>
        <mxCell id="8y1poY6qZc2KTzl0dJHU-14" style="edgeStyle=orthogonalEdgeStyle;rounded=0;orthogonalLoop=1;jettySize=auto;html=1;exitX=0.5;exitY=0;exitDx=0;exitDy=0;entryX=0.5;entryY=1;entryDx=0;entryDy=0;endArrow=none;endFill=0;" edge="1" parent="1" source="8y1poY6qZc2KTzl0dJHU-10" target="8y1poY6qZc2KTzl0dJHU-9">
          <mxGeometry relative="1" as="geometry" />
        </mxCell>
        <mxCell id="8y1poY6qZc2KTzl0dJHU-10" value="Inmueble" style="rounded=0;whiteSpace=wrap;html=1;fillColor=#d5e8d4;strokeColor=#82b366;" vertex="1" parent="1">
          <mxGeometry x="770" y="560" width="160" height="80" as="geometry" />
        </mxCell>
        <mxCell id="8y1poY6qZc2KTzl0dJHU-12" value="ZonaHabitada" style="rounded=0;whiteSpace=wrap;html=1;fillColor=#d5e8d4;strokeColor=#82b366;" vertex="1" parent="1">
          <mxGeometry x="770" y="920" width="160" height="80" as="geometry" />
        </mxCell>
        <mxCell id="3qpQtq7bTnhM0GeEMwIi-1" value="Tiene -&amp;gt;" style="text;html=1;align=center;verticalAlign=middle;whiteSpace=wrap;rounded=0;rotation=90;" vertex="1" parent="1">
          <mxGeometry x="340" y="450" width="90" height="30" as="geometry" />
        </mxCell>
        <mxCell id="3qpQtq7bTnhM0GeEMwIi-2" value="Pertenece a-&amp;gt;" style="text;html=1;align=center;verticalAlign=middle;whiteSpace=wrap;rounded=0;rotation=-90;" vertex="1" parent="1">
          <mxGeometry x="310" y="450" width="80" height="30" as="geometry" />
        </mxCell>
        <mxCell id="3qpQtq7bTnhM0GeEMwIi-3" value="0...*" style="text;html=1;align=center;verticalAlign=middle;whiteSpace=wrap;rounded=0;" vertex="1" parent="1">
          <mxGeometry x="370" y="530" width="30" height="30" as="geometry" />
        </mxCell>
        <mxCell id="3qpQtq7bTnhM0GeEMwIi-4" value="1" style="text;html=1;align=center;verticalAlign=middle;whiteSpace=wrap;rounded=0;" vertex="1" parent="1">
          <mxGeometry x="335" y="360" width="30" height="30" as="geometry" />
        </mxCell>
        <mxCell id="3qpQtq7bTnhM0GeEMwIi-6" value="Tiene -&amp;gt;" style="text;html=1;align=center;verticalAlign=middle;whiteSpace=wrap;rounded=0;rotation=90;" vertex="1" parent="1">
          <mxGeometry x="340" y="760" width="90" height="30" as="geometry" />
        </mxCell>
        <mxCell id="3qpQtq7bTnhM0GeEMwIi-7" value="Pertenece a-&amp;gt;" style="text;html=1;align=center;verticalAlign=middle;whiteSpace=wrap;rounded=0;rotation=-90;" vertex="1" parent="1">
          <mxGeometry x="310" y="760" width="80" height="30" as="geometry" />
        </mxCell>
        <mxCell id="3qpQtq7bTnhM0GeEMwIi-8" value="1...*" style="text;html=1;align=center;verticalAlign=middle;whiteSpace=wrap;rounded=0;" vertex="1" parent="1">
          <mxGeometry x="335" y="640" width="30" height="30" as="geometry" />
        </mxCell>
        <mxCell id="3qpQtq7bTnhM0GeEMwIi-9" value="1" style="text;html=1;align=center;verticalAlign=middle;whiteSpace=wrap;rounded=0;" vertex="1" parent="1">
          <mxGeometry x="110" y="890" width="30" height="30" as="geometry" />
        </mxCell>
        <mxCell id="3qpQtq7bTnhM0GeEMwIi-10" value="Tiene -&amp;gt;" style="text;html=1;align=center;verticalAlign=middle;whiteSpace=wrap;rounded=0;rotation=90;" vertex="1" parent="1">
          <mxGeometry x="820" y="760" width="90" height="30" as="geometry" />
        </mxCell>
        <mxCell id="3qpQtq7bTnhM0GeEMwIi-11" value="Pertenece a-&amp;gt;" style="text;html=1;align=center;verticalAlign=middle;whiteSpace=wrap;rounded=0;rotation=-90;" vertex="1" parent="1">
          <mxGeometry x="790" y="760" width="80" height="30" as="geometry" />
        </mxCell>
        <mxCell id="3qpQtq7bTnhM0GeEMwIi-12" value="1...*" style="text;html=1;align=center;verticalAlign=middle;whiteSpace=wrap;rounded=0;" vertex="1" parent="1">
          <mxGeometry x="815" y="640" width="30" height="30" as="geometry" />
        </mxCell>
        <mxCell id="3qpQtq7bTnhM0GeEMwIi-13" value="1" style="text;html=1;align=center;verticalAlign=middle;whiteSpace=wrap;rounded=0;" vertex="1" parent="1">
          <mxGeometry x="850" y="880" width="30" height="30" as="geometry" />
        </mxCell>
        <mxCell id="3qpQtq7bTnhM0GeEMwIi-14" value="Tiene -&amp;gt;" style="text;html=1;align=center;verticalAlign=middle;whiteSpace=wrap;rounded=0;rotation=90;" vertex="1" parent="1">
          <mxGeometry x="827" y="415" width="90" height="20" as="geometry" />
        </mxCell>
        <mxCell id="3qpQtq7bTnhM0GeEMwIi-15" value="Pertenece a-&amp;gt;" style="text;html=1;align=center;verticalAlign=middle;whiteSpace=wrap;rounded=0;rotation=-90;" vertex="1" parent="1">
          <mxGeometry x="800" y="410" width="80" height="30" as="geometry" />
        </mxCell>
        <mxCell id="3qpQtq7bTnhM0GeEMwIi-16" value="1...*" style="text;html=1;align=center;verticalAlign=middle;whiteSpace=wrap;rounded=0;" vertex="1" parent="1">
          <mxGeometry x="815" y="240" width="30" height="30" as="geometry" />
        </mxCell>
        <mxCell id="3qpQtq7bTnhM0GeEMwIi-17" value="1" style="text;html=1;align=center;verticalAlign=middle;whiteSpace=wrap;rounded=0;" vertex="1" parent="1">
          <mxGeometry x="850" y="530" width="30" height="30" as="geometry" />
        </mxCell>
        <mxCell id="3qpQtq7bTnhM0GeEMwIi-18" value="&amp;lt;-Tiene&amp;nbsp;" style="text;html=1;align=center;verticalAlign=middle;whiteSpace=wrap;rounded=0;rotation=0;" vertex="1" parent="1">
          <mxGeometry x="245" y="190" width="90" height="20" as="geometry" />
        </mxCell>
        <mxCell id="3qpQtq7bTnhM0GeEMwIi-19" value="Pertenece a-&amp;gt;" style="text;html=1;align=center;verticalAlign=middle;whiteSpace=wrap;rounded=0;rotation=0;" vertex="1" parent="1">
          <mxGeometry x="255" y="150" width="80" height="30" as="geometry" />
        </mxCell>
        <mxCell id="3qpQtq7bTnhM0GeEMwIi-20" value="1" style="text;html=1;align=center;verticalAlign=middle;whiteSpace=wrap;rounded=0;" vertex="1" parent="1">
          <mxGeometry x="740" y="150" width="30" height="30" as="geometry" />
        </mxCell>
        <mxCell id="3qpQtq7bTnhM0GeEMwIi-21" value="1...*" style="text;html=1;align=center;verticalAlign=middle;whiteSpace=wrap;rounded=0;" vertex="1" parent="1">
          <mxGeometry x="-160" y="290" width="30" height="30" as="geometry" />
        </mxCell>
        <mxCell id="3qpQtq7bTnhM0GeEMwIi-22" value="&amp;lt;-Tiene -" style="text;html=1;align=center;verticalAlign=middle;whiteSpace=wrap;rounded=0;rotation=0;" vertex="1" parent="1">
          <mxGeometry x="-15" y="570" width="90" height="30" as="geometry" />
        </mxCell>
        <mxCell id="3qpQtq7bTnhM0GeEMwIi-24" value="1...*" style="text;html=1;align=center;verticalAlign=middle;whiteSpace=wrap;rounded=0;" vertex="1" parent="1">
          <mxGeometry x="-160" y="405" width="30" height="30" as="geometry" />
        </mxCell>
        <mxCell id="3qpQtq7bTnhM0GeEMwIi-25" value="1" style="text;html=1;align=center;verticalAlign=middle;whiteSpace=wrap;rounded=0;" vertex="1" parent="1">
          <mxGeometry x="255" y="610" width="30" height="30" as="geometry" />
        </mxCell>
        <mxCell id="3qpQtq7bTnhM0GeEMwIi-28" value="Pertenece a-&amp;gt;" style="text;html=1;align=center;verticalAlign=middle;whiteSpace=wrap;rounded=0;rotation=0;" vertex="1" parent="1">
          <mxGeometry x="-10" y="610" width="80" height="30" as="geometry" />
        </mxCell>
      </root>
    </mxGraphModel>
  </diagram>
  <diagram id="GMAiYQ5XFpJ_I1Z7Hibh" name="ModeloContexto">
    <mxGraphModel dx="1050" dy="522" grid="1" gridSize="10" guides="1" tooltips="1" connect="1" arrows="1" fold="1" page="1" pageScale="1" pageWidth="850" pageHeight="1100" math="0" shadow="0">
      <root>
        <mxCell id="0" />
        <mxCell id="1" parent="0" />
        <mxCell id="3gtX1SVT0mE5-VZvrJw1-1" value="" style="rounded=1;whiteSpace=wrap;html=1;" parent="1" vertex="1">
          <mxGeometry x="150" y="325" width="560" height="375" as="geometry" />
        </mxCell>
        <mxCell id="3gtX1SVT0mE5-VZvrJw1-3" value="Conjuntos Residenciales" style="ellipse;whiteSpace=wrap;html=1;fillColor=#dae8fc;strokeColor=#6c8ebf;" parent="1" vertex="1">
          <mxGeometry x="365" y="430" width="120" height="80" as="geometry" />
        </mxCell>
        <mxCell id="Ez9KXI8NV5iunmyh-7NC-2" style="edgeStyle=orthogonalEdgeStyle;rounded=0;orthogonalLoop=1;jettySize=auto;html=1;exitX=0.5;exitY=0;exitDx=0;exitDy=0;entryX=1;entryY=0.5;entryDx=0;entryDy=0;dashed=1;dashPattern=8 8;endArrow=open;endFill=0;" edge="1" parent="1" source="3gtX1SVT0mE5-VZvrJw1-4" target="3gtX1SVT0mE5-VZvrJw1-3">
          <mxGeometry relative="1" as="geometry" />
        </mxCell>
        <mxCell id="3gtX1SVT0mE5-VZvrJw1-4" value="Residentes" style="ellipse;whiteSpace=wrap;html=1;fillColor=#ffe6cc;strokeColor=#d79b00;" parent="1" vertex="1">
          <mxGeometry x="540" y="570" width="120" height="80" as="geometry" />
        </mxCell>
        <mxCell id="Ez9KXI8NV5iunmyh-7NC-1" style="edgeStyle=orthogonalEdgeStyle;rounded=0;orthogonalLoop=1;jettySize=auto;html=1;exitX=1;exitY=0.5;exitDx=0;exitDy=0;entryX=0;entryY=0.5;entryDx=0;entryDy=0;dashed=1;dashPattern=8 8;endArrow=open;endFill=0;" edge="1" parent="1" source="3gtX1SVT0mE5-VZvrJw1-5" target="3gtX1SVT0mE5-VZvrJw1-4">
          <mxGeometry relative="1" as="geometry" />
        </mxCell>
        <mxCell id="3HVTxIuA5YoRfTDrWBIa-2" style="edgeStyle=orthogonalEdgeStyle;rounded=0;orthogonalLoop=1;jettySize=auto;html=1;exitX=0.5;exitY=0;exitDx=0;exitDy=0;entryX=0;entryY=0.5;entryDx=0;entryDy=0;endArrow=open;endFill=0;dashed=1;dashPattern=8 8;" edge="1" parent="1" source="3gtX1SVT0mE5-VZvrJw1-5" target="3gtX1SVT0mE5-VZvrJw1-3">
          <mxGeometry relative="1" as="geometry" />
        </mxCell>
        <mxCell id="3gtX1SVT0mE5-VZvrJw1-5" value="Reservas" style="ellipse;whiteSpace=wrap;html=1;fillColor=#e1d5e7;strokeColor=#9673a6;" parent="1" vertex="1">
          <mxGeometry x="180" y="570" width="120" height="80" as="geometry" />
        </mxCell>
        <mxCell id="3HVTxIuA5YoRfTDrWBIa-1" value="&lt;font style=&quot;font-size: 20px;&quot;&gt;VICTUS Residencias&lt;/font&gt;" style="text;html=1;align=center;verticalAlign=middle;resizable=0;points=[];autosize=1;strokeColor=none;fillColor=none;" vertex="1" parent="1">
          <mxGeometry x="320" y="330" width="210" height="40" as="geometry" />
        </mxCell>
      </root>
    </mxGraphModel>
  </diagram>
  <diagram id="2bs4lbKBE6mWCW2HrySK" name="ConjuntosResidenciales">
    <mxGraphModel dx="1050" dy="522" grid="1" gridSize="10" guides="1" tooltips="1" connect="1" arrows="1" fold="1" page="1" pageScale="1" pageWidth="850" pageHeight="1100" math="0" shadow="0">
      <root>
        <mxCell id="0" />
        <mxCell id="1" parent="0" />
        <mxCell id="3QLFaibbgNUeYm63VMcy-1" value="" style="rounded=1;whiteSpace=wrap;html=1;" parent="1" vertex="1">
          <mxGeometry x="120" y="310" width="610" height="310" as="geometry" />
        </mxCell>
        <mxCell id="3QLFaibbgNUeYm63VMcy-3" value="ConjuntoResidencial" style="rounded=0;whiteSpace=wrap;html=1;fillColor=#dae8fc;strokeColor=#6c8ebf;" parent="1" vertex="1">
          <mxGeometry x="490" y="385" width="120" height="60" as="geometry" />
        </mxCell>
        <mxCell id="Xi0OEvVMz6dUEQqaA_l--1" style="edgeStyle=orthogonalEdgeStyle;rounded=0;orthogonalLoop=1;jettySize=auto;html=1;endArrow=none;endFill=0;" parent="1" source="3QLFaibbgNUeYm63VMcy-4" target="3QLFaibbgNUeYm63VMcy-3" edge="1">
          <mxGeometry relative="1" as="geometry">
            <Array as="points">
              <mxPoint x="220" y="545" />
              <mxPoint x="220" y="415" />
            </Array>
          </mxGeometry>
        </mxCell>
        <mxCell id="3QLFaibbgNUeYm63VMcy-4" value="ZonaComun" style="rounded=0;whiteSpace=wrap;html=1;fillColor=#dae8fc;strokeColor=#6c8ebf;" parent="1" vertex="1">
          <mxGeometry x="160" y="515" width="120" height="60" as="geometry" />
        </mxCell>
        <mxCell id="Xi0OEvVMz6dUEQqaA_l--2" style="edgeStyle=orthogonalEdgeStyle;rounded=0;orthogonalLoop=1;jettySize=auto;html=1;endArrow=none;endFill=0;" parent="1" source="3QLFaibbgNUeYm63VMcy-5" target="3QLFaibbgNUeYm63VMcy-4" edge="1">
          <mxGeometry relative="1" as="geometry" />
        </mxCell>
        <mxCell id="3QLFaibbgNUeYm63VMcy-5" value="TipoZonaComun" style="rounded=0;whiteSpace=wrap;html=1;fillColor=#dae8fc;strokeColor=#6c8ebf;" parent="1" vertex="1">
          <mxGeometry x="530" y="515" width="120" height="60" as="geometry" />
        </mxCell>
        <mxCell id="cF4I0TGTBbL1gSI5VxW7-1" value="&lt;font style=&quot;font-size: 20px;&quot;&gt;ConjuntosResidenciales&lt;/font&gt;" style="text;html=1;align=center;verticalAlign=middle;whiteSpace=wrap;rounded=0;" parent="1" vertex="1">
          <mxGeometry x="395" y="325" width="60" height="30" as="geometry" />
        </mxCell>
        <mxCell id="ZKnTNXoQofr7QriCi8s5-1" value="Perftenece a -&amp;gt;" style="text;html=1;align=center;verticalAlign=middle;whiteSpace=wrap;rounded=0;" vertex="1" parent="1">
          <mxGeometry x="335" y="385" width="90" height="30" as="geometry" />
        </mxCell>
        <mxCell id="ZKnTNXoQofr7QriCi8s5-2" value="&amp;lt;- Tiene" style="text;html=1;align=center;verticalAlign=middle;whiteSpace=wrap;rounded=0;" vertex="1" parent="1">
          <mxGeometry x="350" y="420" width="60" height="25" as="geometry" />
        </mxCell>
        <mxCell id="ZKnTNXoQofr7QriCi8s5-3" value="0...*" style="text;html=1;align=center;verticalAlign=middle;whiteSpace=wrap;rounded=0;" vertex="1" parent="1">
          <mxGeometry x="220" y="485" width="60" height="30" as="geometry" />
        </mxCell>
        <mxCell id="ZKnTNXoQofr7QriCi8s5-4" value="1" style="text;html=1;align=center;verticalAlign=middle;whiteSpace=wrap;rounded=0;" vertex="1" parent="1">
          <mxGeometry x="450" y="390" width="60" height="30" as="geometry" />
        </mxCell>
        <mxCell id="ZKnTNXoQofr7QriCi8s5-5" value="&amp;lt;-Perftenece a&amp;nbsp;" style="text;html=1;align=center;verticalAlign=middle;whiteSpace=wrap;rounded=0;" vertex="1" parent="1">
          <mxGeometry x="365" y="545" width="90" height="30" as="geometry" />
        </mxCell>
        <mxCell id="ZKnTNXoQofr7QriCi8s5-6" value="&amp;nbsp;Tiene-&amp;gt;" style="text;html=1;align=center;verticalAlign=middle;whiteSpace=wrap;rounded=0;" vertex="1" parent="1">
          <mxGeometry x="375" y="517.5" width="60" height="25" as="geometry" />
        </mxCell>
        <mxCell id="ZKnTNXoQofr7QriCi8s5-9" value="1" style="text;html=1;align=center;verticalAlign=middle;whiteSpace=wrap;rounded=0;" vertex="1" parent="1">
          <mxGeometry x="280" y="545" width="20" height="30" as="geometry" />
        </mxCell>
        <mxCell id="ZKnTNXoQofr7QriCi8s5-10" value="1...*" style="text;html=1;align=center;verticalAlign=middle;whiteSpace=wrap;rounded=0;" vertex="1" parent="1">
          <mxGeometry x="480" y="520" width="60" height="30" as="geometry" />
        </mxCell>
      </root>
    </mxGraphModel>
  </diagram>
  <diagram id="2QzBpEPZKaZxth79bq2j" name="Residentes">
    <mxGraphModel dx="1050" dy="522" grid="1" gridSize="10" guides="1" tooltips="1" connect="1" arrows="1" fold="1" page="1" pageScale="1" pageWidth="850" pageHeight="1100" math="0" shadow="0">
      <root>
        <mxCell id="0" />
        <mxCell id="1" parent="0" />
        <mxCell id="hVDoFACGEqb5QSkJ0xNd-1" value="" style="rounded=1;whiteSpace=wrap;html=1;" parent="1" vertex="1">
          <mxGeometry x="45" y="340" width="770" height="420" as="geometry" />
        </mxCell>
        <mxCell id="hVDoFACGEqb5QSkJ0xNd-2" value="Residente" style="rounded=0;whiteSpace=wrap;html=1;fillColor=#ffe6cc;strokeColor=#d79b00;" parent="1" vertex="1">
          <mxGeometry x="430" y="430" width="120" height="60" as="geometry" />
        </mxCell>
        <mxCell id="zyho8ICkh3rr-sWaBGvd-1" style="edgeStyle=orthogonalEdgeStyle;rounded=0;orthogonalLoop=1;jettySize=auto;html=1;endArrow=none;endFill=0;" parent="1" source="hVDoFACGEqb5QSkJ0xNd-3" target="hVDoFACGEqb5QSkJ0xNd-2" edge="1">
          <mxGeometry relative="1" as="geometry">
            <Array as="points">
              <mxPoint x="200" y="460" />
            </Array>
          </mxGeometry>
        </mxCell>
        <mxCell id="hVDoFACGEqb5QSkJ0xNd-3" value="Inmueble" style="rounded=0;whiteSpace=wrap;html=1;fillColor=#ffe6cc;strokeColor=#d79b00;" parent="1" vertex="1">
          <mxGeometry x="140" y="600" width="120" height="60" as="geometry" />
        </mxCell>
        <mxCell id="T7bdupIwB7-AFQSxFYzj-1" style="edgeStyle=orthogonalEdgeStyle;rounded=0;orthogonalLoop=1;jettySize=auto;html=1;exitX=0;exitY=0.5;exitDx=0;exitDy=0;entryX=1;entryY=0.5;entryDx=0;entryDy=0;endArrow=none;endFill=0;" edge="1" parent="1" source="hVDoFACGEqb5QSkJ0xNd-4" target="hVDoFACGEqb5QSkJ0xNd-3">
          <mxGeometry relative="1" as="geometry" />
        </mxCell>
        <mxCell id="hVDoFACGEqb5QSkJ0xNd-4" value="ZonaHabitada" style="rounded=0;whiteSpace=wrap;html=1;fillColor=#ffe6cc;strokeColor=#d79b00;" parent="1" vertex="1">
          <mxGeometry x="580" y="600" width="120" height="60" as="geometry" />
        </mxCell>
        <mxCell id="l1kMgEYXat4IuNkjk0Wd-1" value="&lt;font style=&quot;font-size: 20px;&quot;&gt;Residentes&lt;/font&gt;" style="text;html=1;align=center;verticalAlign=middle;whiteSpace=wrap;rounded=0;" parent="1" vertex="1">
          <mxGeometry x="395" y="350" width="60" height="30" as="geometry" />
        </mxCell>
        <mxCell id="nGohBRud4U4XDCxjsdmt-1" value="&amp;lt;-Pertenece a&amp;nbsp;" style="text;html=1;align=center;verticalAlign=middle;whiteSpace=wrap;rounded=0;" vertex="1" parent="1">
          <mxGeometry x="345" y="630" width="110" height="30" as="geometry" />
        </mxCell>
        <mxCell id="nGohBRud4U4XDCxjsdmt-2" value="&amp;lt;-Tiene" style="text;html=1;align=center;verticalAlign=middle;whiteSpace=wrap;rounded=0;" vertex="1" parent="1">
          <mxGeometry x="210" y="460" width="90" height="30" as="geometry" />
        </mxCell>
        <mxCell id="nGohBRud4U4XDCxjsdmt-3" value="Pertenece a -&amp;gt;" style="text;html=1;align=center;verticalAlign=middle;whiteSpace=wrap;rounded=0;" vertex="1" parent="1">
          <mxGeometry x="210" y="430" width="110" height="30" as="geometry" />
        </mxCell>
        <mxCell id="nGohBRud4U4XDCxjsdmt-4" value="0...*" style="text;html=1;align=center;verticalAlign=middle;whiteSpace=wrap;rounded=0;" vertex="1" parent="1">
          <mxGeometry x="390" y="430" width="50" height="30" as="geometry" />
        </mxCell>
        <mxCell id="nGohBRud4U4XDCxjsdmt-5" value="1" style="text;html=1;align=center;verticalAlign=middle;whiteSpace=wrap;rounded=0;" vertex="1" parent="1">
          <mxGeometry x="200" y="585" width="30" height="15" as="geometry" />
        </mxCell>
        <mxCell id="nGohBRud4U4XDCxjsdmt-8" value="1" style="text;html=1;align=center;verticalAlign=middle;whiteSpace=wrap;rounded=0;" vertex="1" parent="1">
          <mxGeometry x="240" y="630" width="60" height="30" as="geometry" />
        </mxCell>
        <mxCell id="nGohBRud4U4XDCxjsdmt-9" value="Tiene-&amp;gt;" style="text;html=1;align=center;verticalAlign=middle;whiteSpace=wrap;rounded=0;" vertex="1" parent="1">
          <mxGeometry x="360" y="610" width="90" height="15" as="geometry" />
        </mxCell>
        <mxCell id="nGohBRud4U4XDCxjsdmt-13" value="1" style="text;html=1;align=center;verticalAlign=middle;whiteSpace=wrap;rounded=0;" vertex="1" parent="1">
          <mxGeometry x="530" y="600" width="60" height="30" as="geometry" />
        </mxCell>
      </root>
    </mxGraphModel>
  </diagram>
  <diagram id="GHDx65SDiCU4yTzlwQHw" name="Reservas">
    <mxGraphModel dx="2708" dy="1028" grid="1" gridSize="10" guides="1" tooltips="1" connect="1" arrows="1" fold="1" page="1" pageScale="1" pageWidth="850" pageHeight="1100" math="0" shadow="0">
      <root>
        <mxCell id="0" />
        <mxCell id="1" parent="0" />
        <mxCell id="M6otjmmwT2y4eyZ6UHYy-3" style="edgeStyle=orthogonalEdgeStyle;rounded=0;orthogonalLoop=1;jettySize=auto;html=1;" edge="1" parent="1" source="bVmCtoFbMYzDRRnnhQID-1" target="M6otjmmwT2y4eyZ6UHYy-2">
          <mxGeometry relative="1" as="geometry" />
        </mxCell>
        <mxCell id="GLaG4-iiv-gaGFsVaQd_-1" style="edgeStyle=orthogonalEdgeStyle;rounded=0;orthogonalLoop=1;jettySize=auto;html=1;" edge="1" parent="1" source="bVmCtoFbMYzDRRnnhQID-1" target="M6otjmmwT2y4eyZ6UHYy-1">
          <mxGeometry relative="1" as="geometry" />
        </mxCell>
        <mxCell id="bVmCtoFbMYzDRRnnhQID-1" value="" style="rounded=1;whiteSpace=wrap;html=1;" parent="1" vertex="1">
          <mxGeometry x="25" y="290" width="800" height="410" as="geometry" />
        </mxCell>
        <mxCell id="bVmCtoFbMYzDRRnnhQID-2" value="Reserva" style="rounded=0;whiteSpace=wrap;html=1;fillColor=#e1d5e7;strokeColor=#9673a6;" parent="1" vertex="1">
          <mxGeometry x="360" y="410" width="120" height="60" as="geometry" />
        </mxCell>
        <mxCell id="uq4PUPR2bpnY03esLfrZ-1" style="edgeStyle=orthogonalEdgeStyle;rounded=0;orthogonalLoop=1;jettySize=auto;html=1;endArrow=none;endFill=0;" parent="1" source="bVmCtoFbMYzDRRnnhQID-3" target="bVmCtoFbMYzDRRnnhQID-2" edge="1">
          <mxGeometry relative="1" as="geometry">
            <Array as="points">
              <mxPoint x="160" y="440" />
            </Array>
          </mxGeometry>
        </mxCell>
        <mxCell id="bVmCtoFbMYzDRRnnhQID-3" value="Residente" style="rounded=0;whiteSpace=wrap;html=1;fillColor=#ffe6cc;strokeColor=#d79b00;" parent="1" vertex="1">
          <mxGeometry x="100" y="590" width="120" height="60" as="geometry" />
        </mxCell>
        <mxCell id="uq4PUPR2bpnY03esLfrZ-2" style="edgeStyle=orthogonalEdgeStyle;rounded=0;orthogonalLoop=1;jettySize=auto;html=1;endArrow=none;endFill=0;" parent="1" source="bVmCtoFbMYzDRRnnhQID-4" target="bVmCtoFbMYzDRRnnhQID-2" edge="1">
          <mxGeometry relative="1" as="geometry">
            <Array as="points">
              <mxPoint x="690" y="440" />
            </Array>
          </mxGeometry>
        </mxCell>
        <mxCell id="bVmCtoFbMYzDRRnnhQID-4" value="ZonaComun" style="rounded=0;whiteSpace=wrap;html=1;fillColor=#dae8fc;strokeColor=#6c8ebf;" parent="1" vertex="1">
          <mxGeometry x="630" y="590" width="120" height="60" as="geometry" />
        </mxCell>
        <mxCell id="IPMFa_gumPy5IPKinTVJ-1" value="&lt;font style=&quot;font-size: 20px;&quot;&gt;Reservas&lt;/font&gt;" style="text;html=1;align=center;verticalAlign=middle;whiteSpace=wrap;rounded=0;" parent="1" vertex="1">
          <mxGeometry x="395" y="300" width="60" height="30" as="geometry" />
        </mxCell>
        <mxCell id="wLf2MHycNjemfzjDADyV-1" value="Tiene -&amp;gt;" style="text;html=1;align=center;verticalAlign=middle;whiteSpace=wrap;rounded=0;" parent="1" vertex="1">
          <mxGeometry x="177" y="410" width="90" height="30" as="geometry" />
        </mxCell>
        <mxCell id="wLf2MHycNjemfzjDADyV-2" value="&amp;lt;-Pertenece a" style="text;html=1;align=center;verticalAlign=middle;whiteSpace=wrap;rounded=0;" parent="1" vertex="1">
          <mxGeometry x="182" y="440" width="80" height="30" as="geometry" />
        </mxCell>
        <mxCell id="wLf2MHycNjemfzjDADyV-3" value="1" style="text;html=1;align=center;verticalAlign=middle;whiteSpace=wrap;rounded=0;" parent="1" vertex="1">
          <mxGeometry x="162" y="560" width="20" height="30" as="geometry" />
        </mxCell>
        <mxCell id="wLf2MHycNjemfzjDADyV-4" value="0...*" style="text;html=1;align=center;verticalAlign=middle;whiteSpace=wrap;rounded=0;" parent="1" vertex="1">
          <mxGeometry x="310" y="410" width="60" height="30" as="geometry" />
        </mxCell>
        <mxCell id="wLf2MHycNjemfzjDADyV-5" value="&amp;lt;-Tiene" style="text;html=1;align=center;verticalAlign=middle;whiteSpace=wrap;rounded=0;" parent="1" vertex="1">
          <mxGeometry x="575" y="410" width="90" height="30" as="geometry" />
        </mxCell>
        <mxCell id="wLf2MHycNjemfzjDADyV-6" value="Pertenece a-&amp;gt;" style="text;html=1;align=center;verticalAlign=middle;whiteSpace=wrap;rounded=0;" parent="1" vertex="1">
          <mxGeometry x="580" y="440" width="80" height="30" as="geometry" />
        </mxCell>
        <mxCell id="wLf2MHycNjemfzjDADyV-7" value="1...*" style="text;html=1;align=center;verticalAlign=middle;whiteSpace=wrap;rounded=0;" parent="1" vertex="1">
          <mxGeometry x="650" y="560" width="40" height="30" as="geometry" />
        </mxCell>
        <mxCell id="wLf2MHycNjemfzjDADyV-8" value="1...*" style="text;html=1;align=center;verticalAlign=middle;whiteSpace=wrap;rounded=0;" parent="1" vertex="1">
          <mxGeometry x="470" y="410" width="60" height="30" as="geometry" />
        </mxCell>
        <mxCell id="M6otjmmwT2y4eyZ6UHYy-1" value="ConjuntosResidenciales" style="ellipse;whiteSpace=wrap;html=1;fillColor=#dae8fc;strokeColor=#6c8ebf;" vertex="1" parent="1">
          <mxGeometry x="990" y="455" width="170" height="80" as="geometry" />
        </mxCell>
        <mxCell id="M6otjmmwT2y4eyZ6UHYy-2" value="Residentes" style="ellipse;whiteSpace=wrap;html=1;fillColor=#ffe6cc;strokeColor=#d79b00;" vertex="1" parent="1">
          <mxGeometry x="-240" y="455" width="120" height="80" as="geometry" />
        </mxCell>
      </root>
    </mxGraphModel>
  </diagram>
</mxfile>
